<?xml version="1.0" encoding="utf-8"?>
<!-- Generator: Adobe Illustrator 24.1.3, SVG Export Plug-In . SVG Version: 6.00 Build 0)  -->
<svg version="1.1" id="Layer_1" xmlns="http://www.w3.org/2000/svg" xmlns:xlink="http://www.w3.org/1999/xlink" x="0px" y="0px"
	 viewBox="0 0 569.1 100" style="enable-background:new 0 0 569.1 100;" xml:space="preserve">
<style type="text/css">
	.st0{fill:#B3B3B3;}
	.st1{fill:#666666;}
	.st2{font-family:'Montserrat-LightItalic';}
	.st3{font-size:15.8956px;}
	.st4{fill:#F2F2F2;}
	.st5{font-family:'Montserrat-Bold';}
	.st6{font-size:45.6999px;}
</style>
<path class="st0" d="M89.2,42.7c-0.1,1.6-0.4,3.2-0.7,4.7c-0.1,0.5-0.2,1-0.4,1.4c0,0.1-0.1,0.2-0.1,0.3c-0.1,0.2-0.1,0.3-0.2,0.5
	c-0.2,0.9-0.6,1.7-0.9,2.5c-0.5,1.4-1.1,2.6-1.8,3.8c-0.6,1.2-1.3,2.2-1.9,3.2c-2.7,3.9-5.3,6.5-7.1,8.5c-1.9,2-3.2,3.4-3.8,4.5
	c-0.5,0.9-0.7,1.6-0.7,2.2c0,0.2,0,0.3,0.1,0.5c0.4,1.4,2.1,2.1,2.2,3.3c0.1,0.6-0.3,1.2-1.5,2.1c-0.6,0.5-1.4,0.9-2.5,1.5
	c-0.5,0.2-1.1,0.5-1.8,0.8c-0.7,0.3-1.4,0.5-2.2,0.8c-1.4,0.5-2.8,0.8-4.3,1c-2,0.3-4.1,0.5-6.4,0.4c-2,0-4.1-0.1-6.4-0.4
	c-2.2-0.3-4.6-0.7-7.2-1.4c-5-1.3-10.5-3.5-15.9-7.1c-2.7-1.8-5.3-4-7.7-6.6c-2.4-2.6-4.7-5.6-6.6-9c-1.9-3.4-3.4-7.3-4.3-11.6
	c-0.9-4.3-1.2-9-0.4-13.8c0.4-2.4,1.1-4.8,2.1-7.2c1-2.4,2.4-4.8,4.1-7.1c0.3-0.4,0.6-0.8,1-1.3c3.1-3.2,6.9-6,11.3-8.1
	c0.8-0.4,1.6-0.7,2.4-1c0.4-0.1,0.8-0.3,1.2-0.4c0,0,0,0,0.1,0c0.4-0.1,0.8-0.3,1.2-0.4c1.7-0.5,3.4-0.9,5.2-1.1
	c3.5-0.5,7.2-0.4,10.7,0.6c3.5,0.9,6.9,2.7,9.7,5.2c1.3,1.2,2.5,2.5,3.5,3.9c-3.2-3.5-7.4-6-12-7.2c-0.1,0-0.2-0.1-0.3-0.1l-0.4-0.2
	l-0.7-0.2L45.4,10L45,10l-0.8-0.1l-0.8-0.1c-0.2,0-0.5-0.1-0.8-0.1c-2.1-0.1-4.2,0-6.5,0.5c-0.5,0.1-1,0.2-1.5,0.3
	c-0.1,0-0.2,0-0.2,0.1c-0.5,0.2-1.1,0.3-1.6,0.5c-0.6,0.2-1.1,0.4-1.7,0.6c-0.1,0-0.2,0.1-0.3,0.1c-0.2,0.1-0.4,0.2-0.6,0.2
	l-0.6,0.3c-0.3,0.2-0.7,0.3-1,0.5c-0.2,0.1-0.3,0.2-0.5,0.3c-0.7,0.3-1.3,0.7-2,1.2c-1,0.6-2,1.4-2.9,2.1c-0.9,0.7-1.8,1.6-2.6,2.5
	c-0.8,0.9-1.6,1.8-2.3,2.8c-0.7,1-1.4,2-1.9,3c-0.6,1.1-1.1,2.1-1.5,3.2c-0.4,1.1-0.8,2.2-1,3.4c-0.2,1.1-0.5,2.3-0.6,3.4
	c-0.3,3.1,0,6.3,0.9,9.5c0,0,0,0,0,0.1c0.4,1.7,1,3.4,1.8,5c0.2,0.6,0.6,1.2,0.8,1.7c0.3,0.6,0.6,1.1,1,1.7c0.7,1.1,1.4,2.2,2.2,3.2
	c1.6,2,3.6,3.9,5.7,5.5c1.1,0.8,2.2,1.6,3.4,2.2c1.2,0.7,2.4,1.3,3.7,1.8c1.3,0.5,2.6,1,4,1.4c1.4,0.4,2.8,0.7,4.2,0.9
	c2.9,0.5,6,0.6,9.2,0.5c0.8,0,1.6-0.1,2.4-0.1c0.8-0.1,1.6-0.1,2.5-0.2c1.7-0.2,3.3-0.5,4.9-0.8c6.5-1.3,12.8-3.6,18-7.7
	c2.6-2,4.9-4.4,6.8-7.2C86.9,49.2,88.3,46.1,89.2,42.7z"/>
<path class="st1" d="M42,10.4c-0.8-0.1-1.6-0.1-2.4-0.1c-1.5,0-3,0.2-4.5,0.4c-1.3,0.2-2.6,0.6-3.8,0.9c-0.1,0-0.2,0.1-0.3,0.1
	c-0.1,0-0.2,0.1-0.3,0.1c-0.4,0.1-0.8,0.3-1.2,0.4c-0.3,0.1-0.6,0.2-1,0.4l-0.9,0.4c-1.2,0.6-2.5,1.2-3.6,1.9
	c-1.2,0.7-2.3,1.5-3.4,2.4c-1.1,0.8-2.1,1.8-3.1,2.8c-0.4,0.4-0.8,0.8-1.2,1.3c-0.5,0.6-1,1.2-1.5,1.9c-0.8,1.1-1.6,2.3-2.3,3.5
	c-0.7,1.2-1.3,2.4-1.8,3.7c-0.5,1.3-0.9,2.6-1.2,3.9c-0.3,1.3-0.5,2.6-0.7,4c-0.5,5.4,0.6,11.1,3,16.2c2.4,5.1,6.2,9.7,11,13.1
	c1.2,0.9,2.5,1.7,3.8,2.4c1.3,0.7,2.7,1.3,4.1,1.9c1.4,0.5,2.9,1,4.4,1.4c1.5,0.4,3.1,0.7,4.6,0.9c3.2,0.4,6.5,0.5,9.9,0.2
	c0.8,0,1.7-0.2,2.6-0.2c0.9-0.1,1.7-0.2,2.6-0.4c1.7-0.3,3.4-0.6,5.1-1c6.8-1.6,13.3-4.4,18.5-8.9c2.6-2.2,4.9-4.9,6.7-7.9
	c1.2-2,2.2-4.2,2.9-6.5c0.1-0.2,0.1-0.3,0.2-0.5c0-0.1,0.1-0.2,0.1-0.3c0.1-0.5,0.3-1,0.4-1.4c0.1-0.3,0.2-0.6,0.2-1
	c-0.3,3.6-1.1,6.7-2.3,9.4c-0.6,1.4-1.2,2.6-1.8,3.8c-0.7,1.2-1.3,2.2-2,3.2c-2.8,3.9-5.5,6.4-7.4,8.2c-1.5,1.4-2.6,2.4-3.4,3.2
	c-0.2,0.3-0.5,0.5-0.7,0.7c-0.8,0.9-1,1.5-0.8,2c0.2,1,1.7,1.3,1.7,2.1c0,0.4-0.4,0.9-1.6,1.7c-0.6,0.4-1.4,0.8-2.4,1.3
	c-0.5,0.2-1.1,0.5-1.7,0.7c-0.6,0.2-1.3,0.5-2.1,0.7c-0.8,0.3-1.6,0.5-2.5,0.7c-2.4,0.6-4.9,0.9-7.7,1.1c-1.9,0.1-3.9,0.1-6,0
	s-4.5-0.4-6.9-0.8c-4.8-0.9-10.3-2.6-15.7-5.7c-2.7-1.6-5.4-3.5-8-5.9s-5-5.2-7.1-8.6C8.1,60.8,6.4,57,5.3,52.6
	c-1.1-4.3-1.6-9.2-0.9-14.2c0.4-2.5,1-5.1,2-7.7c1-2.6,2.4-5.1,4.1-7.5c1-1.4,2.1-2.8,3.4-4.1c3.1-3.2,6.9-6,11.3-8.1
	c0.8-0.4,1.6-0.7,2.4-1c0.4-0.1,0.8-0.3,1.2-0.4c0,0,0,0,0.1,0c0.4-0.1,0.8-0.3,1.2-0.4c1.7-0.5,3.4-0.9,5.2-1.1
	c3.5-0.5,7.2-0.4,10.7,0.6c3.5,0.9,6.9,2.7,9.7,5.2c1.3,1.2,2.5,2.5,3.5,3.9c-3.2-3.5-7.4-6-12-7.2L42,10.4z"/>
<text transform="matrix(1 0 0 1 362.6226 84.3643)" class="st1 st2 st3">a consulting boutique</text>
<text transform="matrix(1 0 0 1 96.061 62.4521)" class="st4 st5 st6">Generative Learning</text>
<g>
	<path class="st4" d="M39.9,7.5C23.1,7.5,9.4,21.1,9.4,38c0,16.9,13.7,30.5,30.5,30.5c16.9,0,30.5-13.7,30.5-30.5
		C70.5,21.1,56.8,7.5,39.9,7.5z M39.9,63.2C26,63.2,14.7,51.9,14.7,38c0-13.9,11.3-25.2,25.2-25.2S65.2,24.1,65.2,38
		C65.2,51.9,53.9,63.2,39.9,63.2z"/>
	<circle class="st4" cx="61.5" cy="38.1" r="1.9"/>
	<circle class="st4" cx="18.6" cy="38.1" r="1.9"/>
	<circle class="st4" cx="40.1" cy="16.7" r="1.9"/>
	<circle class="st4" cx="40" cy="59.5" r="1.9"/>
	<path class="st4" d="M37.2,35.2l-11.5,17l17-11.5l11.5-17L37.2,35.2z M41.5,39.6c-0.9,0.9-2.2,0.8-3.1,0c-0.9-0.9-0.9-2.2,0-3.1
		c0.9-0.9,2.2-0.9,3.1,0S42.3,38.7,41.5,39.6z"/>
	<polygon class="st4" points="39.9,54.8 42.1,44.3 38.3,46.8 	"/>
	<polygon class="st4" points="33.7,35.8 23.1,38 31.1,39.7 	"/>
	<polygon class="st4" points="39.9,21.2 37.8,31.8 41.6,29.2 	"/>
	<polygon class="st4" points="46.2,40.2 56.7,38 48.8,36.4 	"/>
</g>
</svg>
